<?xml version="1.0" encoding="UTF-8" standalone="no"?>
<!-- Created with Inkscape (http://www.inkscape.org/) -->

<svg
   xmlns:dc="http://purl.org/dc/elements/1.1/"
   xmlns:cc="http://creativecommons.org/ns#"
   xmlns:rdf="http://www.w3.org/1999/02/22-rdf-syntax-ns#"
   xmlns:svg="http://www.w3.org/2000/svg"
   xmlns="http://www.w3.org/2000/svg"
   xmlns:sodipodi="http://sodipodi.sourceforge.net/DTD/sodipodi-0.dtd"
   xmlns:inkscape="http://www.inkscape.org/namespaces/inkscape"
   width="210mm"
   height="297mm"
   viewBox="0 0 210 297"
   version="1.1"
   id="svg8"
   inkscape:version="0.92.2 5c3e80d, 2017-08-06"
   sodipodi:docname="co2_loss.svg">
  <defs
     id="defs2" />
  <sodipodi:namedview
     id="base"
     pagecolor="#ffffff"
     bordercolor="#666666"
     borderopacity="1.0"
     inkscape:pageopacity="0.0"
     inkscape:pageshadow="2"
     inkscape:zoom="1.4"
     inkscape:cx="382.27984"
     inkscape:cy="743.80061"
     inkscape:document-units="mm"
     inkscape:current-layer="layer1"
     showgrid="false"
     inkscape:window-width="1684"
     inkscape:window-height="1583"
     inkscape:window-x="0"
     inkscape:window-y="0"
     inkscape:window-maximized="0" />
  <metadata
     id="metadata5">
    <rdf:RDF>
      <cc:Work
         rdf:about="">
        <dc:format>image/svg+xml</dc:format>
        <dc:type
           rdf:resource="http://purl.org/dc/dcmitype/StillImage" />
        <dc:title></dc:title>
      </cc:Work>
    </rdf:RDF>
  </metadata>
  <g
     inkscape:label="Layer 1"
     inkscape:groupmode="layer"
     id="layer1">
    <path
       style="fill:#f2f2f2;fill-opacity:1;stroke-width:0.1889881"
       d="M 59.02895,21.667177 V 11.650808 h 45.82961 45.82961 V 21.667177 31.683546 H 104.85856 59.02895 Z"
       id="path401"
       inkscape:connector-curvature="0" />
    <g
       id="g189"
       transform="matrix(0.37516533,0,0,0.37516533,63.106369,12.41635)">
      <path
         id="path106"
         d="m 722.414,1605.13 -0.014,6.95 -6.023,3.46 -246.097,-142.74 6.037,-10.4 z"
         transform="matrix(0.05,0,0,0.05,-21,-53)"
         stroke="transparent"
         inkscape:connector-curvature="0"
         style="fill:#000000" />
      <path
         id="path108"
         d="m 727.843,1900.06 -12.031,-0.02 0.565,-284.5 6.023,-3.46 6.009,3.48 z"
         transform="matrix(0.05,0,0,0.05,-21,-53)"
         stroke="transparent"
         inkscape:connector-curvature="0"
         style="fill:#000000" />
      <path
         id="path110"
         d="m 972.088,1461.65 -0.028,13.89 -243.651,140.02 -6.009,-3.48 0.014,-6.95 z"
         transform="matrix(0.05,0,0,0.05,-21,-53)"
         stroke="transparent"
         inkscape:connector-curvature="0"
         style="fill:#000000" />
      <text
         id="text112"
         style="font-style:normal;font-variant:normal;font-weight:normal;font-stretch:normal;font-size:200px;line-height:normal;font-family:Helvetica;fill:#000000"
         transform="matrix(0.05,0,0,0.05,24.1362,9.61759)"
         stroke="transparent"
         y="0"
         x="0">O</text>
      <path
         id="path114"
         d="m 940.495,1290.91 12.031,0.02 -0.383,192.59 -12.031,-0.03 z"
         transform="matrix(0.05,0,0,0.05,-21,-53)"
         stroke="transparent"
         inkscape:connector-curvature="0"
         style="fill:#000000" />
      <path
         id="path116"
         d="m 992.329,1291.01 12.031,0.03 -0.38,192.58 -12.034,-0.03 z"
         transform="matrix(0.05,0,0,0.05,-21,-53)"
         stroke="transparent"
         inkscape:connector-curvature="0"
         style="fill:#000000" />
      <text
         id="text118"
         style="font-style:normal;font-variant:normal;font-weight:normal;font-stretch:normal;font-size:200px;line-height:normal;font-family:Helvetica;fill:#000000"
         transform="matrix(0.05,0,0,0.05,36.5627,31.24)"
         stroke="transparent"
         y="0"
         x="0">O</text>
      <path
         id="path120"
         d="m 1132.97,1554.96 -6.04,10.4 -154.87,-89.82 0.028,-13.89 z"
         transform="matrix(0.05,0,0,0.05,-21,-53)"
         stroke="transparent"
         inkscape:connector-curvature="0"
         style="fill:#000000" />
      <path
         id="path122"
         d="m 1320.95,1553.16 a 28.8667,28.8667 0 1 0 57.73,0 28.8667,28.8667 0 1 0 -57.73,0 z"
         transform="matrix(0.05,0,0,0.05,-21,-53)"
         stroke="transparent"
         inkscape:connector-curvature="0"
         style="fill:#000000" />
      <path
         id="path124"
         d="M 2273.09,1546 H 1750 v -12 h 523.09 z"
         transform="matrix(0.05,0,0,0.05,-21,-53)"
         stroke="transparent"
         inkscape:connector-curvature="0"
         style="fill:#000000" />
      <path
         id="path126"
         d="m 2430,1540 c 0,0 -180.47,46.12 -180.47,46.12 0,0 22.56,-25.94 22.56,-46.12 0,-20.61 -22.56,-47.12 -22.56,-47.12 0,0 180.47,47.12 180.47,47.12 0,0 0,0 0,0"
         transform="matrix(0.05,0,0,0.05,-21,-53)"
         stroke="transparent"
         inkscape:connector-curvature="0"
         style="fill:#000000" />
      <path
         id="path128"
         d="m 2430,1540 c 0,0 -180.47,46.12 -180.47,46.12 0,0 22.56,-25.94 22.56,-46.12 0,-20.61 -22.56,-47.12 -22.56,-47.12 0,0 180.47,47.12 180.47,47.12 0,0 0,0 0,0"
         transform="matrix(0.05,0,0,0.05,-21,-53)"
         fill="transparent"
         inkscape:connector-curvature="0"
         style="stroke:#000000;stroke-width:1" />
      <text
         id="text130"
         style="font-style:normal;font-variant:normal;font-weight:normal;font-stretch:normal;font-size:200px;line-height:normal;font-family:Helvetica;fill:#000000"
         transform="matrix(0.05,0,0,0.05,203.617,27.2292)"
         stroke="transparent"
         y="0"
         x="0">C</text>
      <text
         id="text132"
         style="font-style:normal;font-variant:normal;font-weight:normal;font-stretch:normal;font-size:200px;line-height:normal;font-family:Helvetica;fill:#000000"
         transform="matrix(0.05,0,0,0.05,215.729,34.4042)"
         stroke="transparent"
         y="0"
         x="0">O</text>
      <text
         id="text134"
         style="font-style:normal;font-variant:normal;font-weight:normal;font-stretch:normal;font-size:200px;line-height:normal;font-family:Helvetica;fill:#000000"
         transform="matrix(0.05,0,0,0.05,190.874,20.0542)"
         stroke="transparent"
         y="0"
         x="0">O</text>
      <path
         id="path136"
         d="m 3061.87,1531.89 v 6.94 l -6.01,3.48 -246.38,-142.25 6.01,-10.42 z"
         transform="matrix(0.05,0,0,0.05,-21,-53)"
         stroke="transparent"
         inkscape:connector-curvature="0"
         style="fill:#000000" />
      <path
         id="path138"
         d="m 4729.11,1596.06 -6.01,10.42 -67.21,-38.81 6.01,-10.42 z"
         transform="matrix(0.05,0,0,0.05,-21,-53)"
         stroke="transparent"
         inkscape:connector-curvature="0"
         style="fill:#000000" />
      <path
         id="path140"
         d="m 4703.28,1640.8 -6.01,10.41 -67.21,-38.8 6.01,-10.42 z"
         transform="matrix(0.05,0,0,0.05,-21,-53)"
         stroke="transparent"
         inkscape:connector-curvature="0"
         style="fill:#000000" />
      <path
         id="path142"
         d="m 4383,1469.77 6.02,-10.42 69.67,40.23 -6.02,10.42 z"
         transform="matrix(0.05,0,0,0.05,-21,-53)"
         stroke="transparent"
         inkscape:connector-curvature="0"
         style="fill:#000000" />
      <path
         id="path144"
         d="m 4408.83,1425.04 6.02,-10.42 69.67,40.22 -6.02,10.42 z"
         transform="matrix(0.05,0,0,0.05,-21,-53)"
         stroke="transparent"
         inkscape:connector-curvature="0"
         style="fill:#000000" />
      <path
         id="path146"
         d="m 3067.89,1826.8 h -12.03 v -284.49 l 6.01,-3.48 6.02,3.48 z"
         transform="matrix(0.05,0,0,0.05,-21,-53)"
         stroke="transparent"
         inkscape:connector-curvature="0"
         style="fill:#000000" />
      <text
         id="text148"
         style="font-style:normal;font-variant:normal;font-weight:normal;font-stretch:normal;font-size:200px;line-height:normal;font-family:Helvetica;fill:#000000"
         transform="matrix(0.05,0,0,0.05,165.5,26)"
         stroke="transparent"
         y="0"
         x="0">+</text>
      <path
         id="path150"
         d="m 3130.71,1596.87 a 24.2,24.2 0 1 0 48.4,0 24.2,24.2 0 1 0 -48.4,0 z"
         transform="matrix(0.05,0,0,0.05,-21,-53)"
         stroke="transparent"
         inkscape:connector-curvature="0"
         style="fill:#000000" />
      <text
         id="text152"
         style="font-style:normal;font-variant:normal;font-weight:normal;font-stretch:normal;font-size:200px;line-height:normal;font-family:Helvetica;fill:#000000"
         transform="matrix(0.05,0,0,0.05,141.716,20.3289)"
         stroke="transparent"
         y="0"
         x="0">H</text>
      <path
         id="path154"
         d="m 3207.28,1447.94 6.02,10.41 -145.41,83.96 -6.02,-3.48 v -6.94 z"
         transform="matrix(0.05,0,0,0.05,-21,-53)"
         stroke="transparent"
         inkscape:connector-curvature="0"
         style="fill:#000000" />
    </g>
    <text
       xml:space="preserve"
       style="font-style:normal;font-weight:normal;font-size:3.35772657px;line-height:1.25;font-family:sans-serif;letter-spacing:0px;word-spacing:0px;fill:#000000;fill-opacity:1;stroke:none;stroke-width:0.08394317"
       x="15.658896"
       y="41.33522"
       id="text376"><tspan
         sodipodi:role="line"
         id="tspan374"
         x="15.658896"
         y="41.33522"
         style="stroke-width:0.08394317">Config.min_step_size = 0.05</tspan></text>
    <text
       xml:space="preserve"
       style="font-style:normal;font-weight:normal;font-size:10.58333302px;line-height:1.25;font-family:sans-serif;letter-spacing:0px;word-spacing:0px;fill:#000000;fill-opacity:1;stroke:none;stroke-width:0.26458332"
       x="179.91667"
       y="81.553574"
       id="text502"><tspan
         sodipodi:role="line"
         id="tspan500"
         x="179.91667"
         y="90.917343"
         style="stroke-width:0.26458332" /></text>
  </g>
</svg>
